<?xml version="1.0" standalone="no"?>
<!DOCTYPE svg PUBLIC "-//W3C//DTD SVG 20010904//EN"
 "http://www.w3.org/TR/2001/REC-SVG-20010904/DTD/svg10.dtd">
<svg version="1.0" xmlns="http://www.w3.org/2000/svg"
 width="200.000000pt" height="200.000000pt" viewBox="0 0 200.000000 200.000000"
 preserveAspectRatio="xMidYMid meet">

<g transform="translate(0.000000,200.000000) scale(0.100000,-0.100000)"
fill="#000000" stroke="none">
<path d="M339 1789 c-15 -15 -17 -24 -9 -39 6 -11 15 -20 20 -20 5 0 33 -14
61 -31 29 -17 80 -41 113 -55 144 -58 516 -279 516 -307 0 -10 50 -73 131
-165 55 -63 72 -115 72 -216 -2 -132 -58 -229 -221 -382 -50 -46 -94 -84 -98
-84 -4 0 -46 -24 -93 -54 -136 -85 -197 -116 -308 -161 -118 -49 -212 -118
-200 -149 6 -15 16 -17 74 -11 99 10 124 14 158 30 27 12 95 30 151 41 43 8
291 87 364 116 131 51 310 140 303 151 -3 6 -1 7 5 3 12 -7 49 9 109 49 21 14
47 31 57 38 66 43 204 158 221 184 11 17 27 33 36 36 9 2 32 35 50 73 60 126
51 284 -21 366 -17 18 -30 39 -30 46 0 6 -9 12 -20 12 -11 0 -20 4 -20 8 0 5
-14 22 -31 38 -81 76 -97 90 -123 109 -15 11 -37 28 -48 37 -11 9 -33 20 -50
23 -16 4 -27 9 -24 12 16 17 -141 97 -209 108 -21 3 -42 9 -45 14 -4 7 -190
72 -215 75 -5 0 -13 5 -16 9 -6 9 -35 17 -159 43 -41 9 -92 22 -115 29 -44 15
-268 45 -328 44 -24 -1 -46 -8 -58 -20z m1426 -654 c25 -51 30 -71 29 -132 -1
-66 -4 -75 -39 -125 -53 -74 -56 -76 -44 -37 14 47 13 186 -1 240 -13 47 -42
108 -70 149 -29 40 -34 68 -13 72 23 4 97 -85 138 -167z"/>
<path d="M285 1606 c-17 -25 -17 -27 6 -61 13 -19 27 -35 31 -35 3 0 16 -16
28 -35 12 -19 26 -33 30 -30 5 3 19 -8 31 -24 12 -17 26 -28 30 -25 4 2 13 -6
20 -18 7 -13 15 -25 18 -28 18 -14 88 -132 107 -180 31 -75 48 -180 39 -243
-3 -29 -6 -63 -6 -77 1 -18 -2 -21 -8 -12 -6 10 -18 -2 -44 -45 -20 -32 -41
-71 -46 -86 -6 -15 -18 -30 -26 -33 -8 -4 -15 -11 -16 -18 0 -6 -28 -35 -63
-64 -135 -114 -236 -218 -236 -243 0 -33 28 -72 47 -65 8 3 11 1 8 -4 -4 -6
15 -10 47 -10 42 0 69 8 120 34 37 19 69 32 71 30 8 -9 98 36 92 46 -3 6 4 10
16 10 34 0 250 117 325 176 161 127 257 301 237 427 -8 55 -68 186 -87 193 -9
3 -16 12 -16 20 0 16 -68 94 -82 94 -15 0 -88 62 -83 70 3 5 -16 20 -42 36
-27 15 -61 38 -77 52 -17 13 -95 56 -175 95 -128 63 -154 72 -213 75 -62 4
-67 3 -83 -22z m779 -452 c3 -8 2 -12 -4 -9 -6 3 -10 10 -10 16 0 14 7 11 14
-7z m-24 -88 c12 -15 28 -176 16 -165 -10 10 -45 179 -36 179 4 0 13 -6 20
-14z"/>
<path d="M373 273 c9 -2 23 -2 30 0 6 3 -1 5 -18 5 -16 0 -22 -2 -12 -5z"/>
</g>
</svg>
