<?xml version="1.0" encoding="UTF-8"?>
<svg xmlns="http://www.w3.org/2000/svg" xmlns:xlink="http://www.w3.org/1999/xlink" width="200px" height="200px" viewBox="0 0 200 200" version="1.1">
<g id="surface1">
<path style=" stroke:none;fill-rule:nonzero;fill:rgb(0%,0%,0%);fill-opacity:1;" d="M 201.082031 81.144531 C 201.082031 121.523438 201.082031 161.332031 201.082031 201.144531 C 134.414062 201.144531 67.746094 201.144531 1.082031 201.144531 C 1.082031 134.476562 1.082031 67.808594 1.082031 1.144531 C 67.746094 1.144531 134.414062 1.144531 201.082031 1.144531 C 201.082031 27.617188 201.082031 54.09375 201.082031 81.144531 M 31.5 51.109375 C 32.160156 51.304688 32.824219 51.503906 33.800781 52.398438 C 35.34375 53.574219 36.886719 54.75 38.546875 56.152344 C 38.546875 56.152344 38.933594 56.476562 39.339844 57.167969 C 41.359375 58.671875 43.378906 60.179688 45.664062 62.402344 C 56.996094 75.078125 64.503906 89.347656 62.65625 108.222656 C 62.664062 108.667969 62.667969 109.113281 62.019531 109.90625 C 61.949219 110.644531 61.878906 111.378906 61.746094 112.820312 C 61.734375 113.292969 61.722656 113.761719 60.96875 114.519531 C 58.277344 118.792969 55.507812 123.019531 52.9375 127.378906 C 52.265625 128.519531 52.214844 130.078125 51.894531 131.433594 C 51.894531 131.433594 51.902344 131.421875 51.183594 131.425781 C 50.320312 132.15625 49.453125 132.890625 48.632812 133.679688 C 48.632812 133.679688 48.566406 133.652344 47.921875 133.90625 C 47.753906 134.59375 47.589844 135.285156 46.804688 136.355469 C 38.644531 143.804688 30.324219 151.074219 22.371094 158.765625 C 16.828125 164.125 17.121094 167.476562 22.960938 173.269531 C 26.527344 173.097656 30.09375 172.921875 34.179688 172.546875 C 34.585938 172.257812 34.996094 171.96875 35.964844 172.398438 C 38.679688 172.238281 41.394531 172.078125 44.570312 171.894531 C 44.109375 173.339844 43.683594 174.664062 42.578125 176.175781 C 41.382812 177.265625 40.1875 178.355469 38.574219 180.097656 C 36.414062 182.03125 34.257812 183.96875 32.097656 185.90625 C 32.339844 186.753906 32.582031 187.601562 32.828125 188.449219 C 37.710938 188.195312 42.597656 187.945312 47.910156 188.148438 C 51.769531 186.753906 55.628906 185.359375 60 183.914062 C 60 183.914062 60.507812 184 60.675781 184.457031 C 61.007812 184.332031 61.335938 184.207031 61.691406 184.066406 C 61.691406 184.066406 61.71875 184.089844 62.417969 183.988281 C 77.179688 179.289062 92.113281 175.105469 106.644531 169.714844 C 117.160156 165.8125 127.144531 160.304688 137.289062 155.445312 C 137.289062 155.445312 137.359375 155.527344 138.160156 155.421875 C 141.835938 153.449219 145.515625 151.472656 149.90625 149.289062 C 157.199219 143.695312 164.492188 138.105469 172.117188 131.84375 C 174.191406 129.773438 176.269531 127.699219 179.097656 125.511719 C 191.347656 110.945312 193.226562 89.96875 179.65625 74.640625 C 179.253906 74.234375 178.855469 73.828125 177.949219 73.867188 C 177.75 73.96875 177.554688 74.066406 177.019531 73.515625 C 174.984375 71.460938 172.949219 69.40625 170.867188 66.539062 C 165.816406 62.617188 160.769531 58.695312 155.503906 54.292969 C 155.285156 53.976562 154.992188 53.832031 153.945312 53.460938 C 152.726562 53.15625 151.503906 52.851562 150.269531 52.570312 C 150.269531 52.570312 150.292969 52.554688 150.183594 51.757812 C 142.746094 45.890625 134.667969 41.550781 125.417969 40.03125 C 125.417969 40.03125 125.347656 40.042969 125.03125 39.292969 C 116.515625 36.464844 108.003906 33.640625 99.453125 30.839844 C 99.453125 30.839844 99.496094 30.832031 99.339844 30.273438 C 99.019531 30.144531 98.695312 30.019531 97.648438 29.875 C 97.191406 29.730469 96.734375 29.582031 95.921875 28.832031 C 95.273438 28.828125 94.625 28.824219 93.277344 28.78125 C 92.828125 28.667969 92.378906 28.550781 91.589844 27.808594 C 88.820312 27.375 86.054688 26.941406 82.734375 26.433594 C 82.558594 26.371094 82.382812 26.3125 81.765625 25.5625 C 79.703125 25.164062 77.640625 24.761719 74.949219 24.273438 C 74.742188 24.230469 74.535156 24.191406 74.324219 23.746094 C 74.128906 23.875 73.933594 24.007812 73.082031 24.117188 C 72.871094 24.078125 72.65625 24.035156 72.265625 23.449219 C 71.953125 23.292969 71.640625 23.136719 70.578125 22.921875 C 65.796875 22.117188 61.011719 21.3125 55.773438 19.847656 C 53.417969 19.800781 51.066406 19.757812 48.039062 19.648438 C 47.816406 19.605469 47.59375 19.566406 47.320312 19.121094 C 47.105469 19.253906 46.890625 19.390625 46.085938 19.667969 C 45.886719 19.714844 45.6875 19.757812 44.566406 19.574219 C 42.679688 19.613281 40.789062 19.652344 38.816406 19.597656 C 38.816406 19.597656 38.699219 19.550781 38.667969 19.136719 C 38.453125 19.265625 38.234375 19.398438 37.429688 19.640625 C 37.234375 19.675781 37.035156 19.710938 36.292969 19.503906 C 36.097656 19.46875 35.902344 19.433594 35.460938 18.640625 C 34.042969 19.261719 32.625 19.886719 30.445312 20.933594 C 30.03125 22.113281 29.324219 23.277344 29.257812 24.484375 C 28.992188 29.199219 30.09375 34.140625 25.59375 37.777344 C 24.777344 38.4375 25.757812 41.582031 25.910156 44.320312 C 26.601562 45.210938 27.289062 46.101562 28.054688 47.785156 C 28.75 48.28125 29.445312 48.777344 30.308594 49.832031 C 30.613281 50.03125 30.917969 50.230469 31.5 51.109375 Z M 31.5 51.109375 "/>
<path style=" stroke:none;fill-rule:nonzero;fill:rgb(20.784314%,11.372549%,49.411765%);fill-opacity:1;" d="M 72.441406 23.992188 C 72.65625 24.035156 72.871094 24.078125 73.558594 24.132812 C 74.03125 24.144531 74.332031 24.148438 74.332031 24.148438 C 74.535156 24.191406 74.742188 24.230469 75.421875 24.695312 C 78 25.492188 80.101562 25.871094 82.207031 26.25 C 82.382812 26.3125 82.558594 26.371094 83.210938 26.796875 C 86.4375 27.585938 89.183594 28.011719 91.929688 28.4375 C 92.378906 28.550781 92.828125 28.667969 93.710938 29.109375 C 94.855469 29.4375 95.566406 29.433594 96.277344 29.433594 C 96.734375 29.582031 97.191406 29.730469 98.164062 30.082031 C 98.90625 30.542969 99.179688 30.722656 99.496094 30.832031 C 99.496094 30.832031 99.453125 30.839844 99.546875 31.242188 C 107.828125 35.75 116.015625 39.863281 125.347656 40.042969 C 125.347656 40.042969 125.417969 40.03125 125.585938 40.402344 C 133.933594 44.699219 142.113281 48.625 150.292969 52.554688 C 150.292969 52.554688 150.269531 52.570312 150.332031 52.929688 C 151.648438 54.753906 152.75 57.480469 154.621094 53.859375 C 154.992188 53.832031 155.285156 53.976562 155.644531 54.9375 C 160.828125 59.503906 165.871094 63.429688 170.914062 67.351562 C 172.949219 69.40625 174.984375 71.460938 177.070312 74.171875 C 177.042969 75.199219 176.78125 75.730469 176.921875 75.910156 C 187.882812 90.066406 188.679688 104.734375 179.203125 120.117188 C 178.324219 121.542969 178.601562 123.769531 178.34375 125.625 C 176.269531 127.699219 174.191406 129.773438 171.542969 132.195312 C 169.792969 132.847656 168.398438 132.824219 167.472656 133.507812 C 161.3125 138.0625 155.253906 142.765625 148.820312 147.589844 C 147.28125 148.023438 146.078125 148.289062 144.816406 148.433594 C 144.757812 148.308594 144.433594 148.296875 144.433594 148.296875 C 144.433594 148.296875 144.851562 148.582031 144.59375 148.871094 C 141.765625 150.976562 137.210938 150.371094 137.359375 155.527344 C 137.359375 155.527344 137.289062 155.445312 136.890625 155.457031 C 132.316406 154.757812 128.40625 154.828125 125.53125 158.929688 C 125.089844 159.558594 123.941406 159.636719 123.117188 159.964844 C 114.164062 163.527344 105.324219 167.480469 96.222656 170.554688 C 85.171875 174.285156 73.894531 177.277344 62.433594 180.292969 C 58.460938 179.75 56.472656 177.679688 56.621094 173.753906 C 59.359375 172.582031 61.703125 171.492188 63.980469 170.265625 C 70.761719 166.625 77.667969 163.203125 84.226562 159.152344 C 87.808594 156.9375 90.785156 153.628906 94.066406 150.53125 C 94.09375 150.25 94.296875 149.730469 94.703125 149.726562 C 97.269531 148.921875 100.222656 148.808594 101.460938 147.207031 C 108.1875 138.527344 118.191406 133.234375 122.40625 121.679688 C 124.714844 115.359375 126.964844 109.4375 126.308594 102.867188 C 125.9375 99.140625 123.882812 95.601562 122.59375 91.941406 C 122.597656 91.902344 122.566406 91.832031 122.746094 91.421875 C 122.421875 90.25 121.921875 89.492188 121.410156 88.671875 C 121.394531 88.617188 121.355469 88.503906 121.5625 88.066406 C 120.199219 76.113281 111.589844 70.964844 103.402344 65.1875 C 103.175781 65.152344 102.710938 65.136719 102.605469 64.824219 C 102.117188 64.371094 101.734375 64.230469 101.285156 63.710938 C 98.855469 61.992188 96.496094 60.652344 94.109375 59.363281 C 94.089844 59.410156 94.175781 59.351562 94.0625 59.097656 C 93.695312 58.542969 93.375 58.417969 92.890625 58.3125 C 92.785156 58.152344 92.421875 58.109375 92.238281 57.816406 C 91.652344 57.363281 91.246094 57.203125 90.703125 56.789062 C 90.070312 56.300781 89.574219 56.0625 88.867188 55.496094 C 86.914062 54.132812 85.171875 53.097656 83.21875 51.808594 C 81.957031 50.820312 80.90625 50.082031 79.878906 48.90625 C 78.238281 47.117188 76.753906 45.289062 74.875 44.503906 C 70.433594 42.652344 65.804688 41.296875 61.128906 39.742188 C 61.007812 39.742188 60.832031 39.5625 60.886719 39.164062 C 55.484375 36.511719 50.027344 34.257812 44.3125 31.695312 C 41.960938 30.515625 39.863281 29.648438 37.769531 28.710938 C 37.773438 28.640625 37.644531 28.652344 37.585938 28.304688 C 36.894531 27.742188 36.265625 27.527344 35.652344 26.871094 C 36.0625 24.199219 36.449219 21.972656 36.839844 19.746094 C 37.035156 19.710938 37.234375 19.675781 37.894531 19.589844 C 38.355469 19.539062 38.699219 19.550781 38.699219 19.550781 C 38.699219 19.550781 38.816406 19.597656 39.117188 19.90625 C 41.445312 20.078125 43.46875 19.941406 45.492188 19.804688 C 45.6875 19.757812 45.886719 19.714844 46.554688 19.597656 C 47.023438 19.53125 47.371094 19.527344 47.371094 19.527344 C 47.59375 19.566406 47.816406 19.605469 48.582031 20.003906 C 51.496094 20.410156 53.863281 20.457031 56.230469 20.503906 C 61.011719 21.3125 65.796875 22.117188 71.101562 23.164062 C 71.847656 23.679688 72.117188 23.875 72.441406 23.992188 M 173.96875 81.15625 C 173.96875 81.15625 173.953125 81.273438 173.996094 80.394531 C 172.796875 79.167969 171.597656 77.941406 170.023438 76.550781 C 169.785156 76.378906 169.640625 76.140625 169.652344 74.914062 C 168.199219 73.605469 166.746094 72.300781 165.253906 71.058594 C 165.253906 71.058594 165.183594 71.074219 165.28125 70.230469 C 163.238281 65.707031 153.457031 60.09375 148.871094 61.171875 C 150.957031 68.394531 157.203125 70.675781 162.730469 74.617188 C 162.960938 75.167969 163.1875 75.71875 163.144531 76.492188 C 163.265625 76.453125 163.386719 76.414062 164.117188 76.796875 C 165.910156 79.808594 167.707031 82.824219 169.605469 86.738281 C 173.136719 97.730469 174.152344 108.738281 169.78125 120.597656 C 170.007812 124.089844 171.996094 123.433594 172.957031 121.546875 C 175.375 116.800781 177.253906 111.746094 179.226562 105.839844 C 179.402344 99.308594 180.65625 92.597656 176.132812 86.140625 C 175.824219 85.789062 175.515625 85.441406 175.28125 84.535156 C 175.21875 84.164062 175.175781 83.789062 175.59375 82.976562 C 175.03125 82.402344 174.464844 81.824219 173.96875 81.15625 Z M 173.96875 81.15625 "/>
<path style=" stroke:none;fill-rule:nonzero;fill:rgb(58.823529%,0.392157%,48.235294%);fill-opacity:1;" d="M 62.671875 109.554688 C 62.667969 109.113281 62.664062 108.667969 62.941406 107.707031 C 66.019531 105.945312 67.460938 104.324219 66.25 100.664062 C 63.34375 91.867188 61.6875 82.472656 57.820312 74.214844 C 55.15625 68.523438 49.628906 64.324219 45.390625 59.445312 C 45.398438 59.433594 45.382812 59.4375 45.375 59.011719 C 43.972656 57.703125 42.578125 56.824219 41.167969 55.929688 C 41.152344 55.914062 41.136719 55.875 41.113281 55.480469 C 40.292969 54.273438 39.5 53.46875 38.457031 52.390625 C 37.015625 51.464844 35.820312 50.808594 34.601562 49.742188 C 33.171875 46.667969 31.757812 44.003906 29.476562 39.703125 C 35.628906 40.390625 40.898438 39.851562 45.261719 41.699219 C 54.652344 45.667969 63.546875 50.933594 72.71875 55.507812 C 74.597656 56.445312 76.796875 56.664062 78.925781 57.597656 C 82.332031 60.273438 85.664062 62.566406 88.933594 64.890625 C 88.871094 64.925781 88.925781 64.789062 88.863281 65.246094 C 89.074219 69.769531 91.886719 69.5625 94.878906 69.445312 C 95.519531 69.539062 95.863281 69.726562 96.203125 70.320312 C 96.226562 71.527344 96.257812 72.332031 96.257812 73.566406 C 95.703125 76.054688 94.390625 78.3125 94.796875 80.144531 C 96.257812 86.726562 98.652344 93.085938 99.992188 99.691406 C 100.8125 103.722656 100.53125 108.050781 100.394531 112.234375 C 100.273438 115.898438 99.65625 119.542969 99.152344 124.175781 C 100.761719 122.945312 101.199219 122.613281 102.011719 122.292969 C 103.226562 123.082031 104.0625 123.855469 104.730469 124.964844 C 101.195312 129.171875 98.375 133.882812 94.375 136.761719 C 82.605469 145.230469 70.367188 152.972656 58.066406 161.035156 C 57.816406 161.070312 57.320312 161.109375 56.90625 161.160156 C 54.242188 161.882812 51.816406 162.203125 49.800781 163.335938 C 48.058594 164.316406 46.78125 166.214844 45.007812 167.902344 C 43.890625 168.410156 43.066406 168.730469 42.140625 168.660156 C 37.71875 166.484375 34.1875 167.769531 30.839844 171.371094 C 29.328125 171.378906 28.226562 171.378906 26.992188 171.210938 C 26.519531 171.152344 26.179688 171.261719 25.460938 171.367188 C 24.320312 171.335938 23.5625 171.3125 22.730469 170.902344 C 19.945312 166.757812 20.824219 163.328125 23.890625 160.535156 C 26.96875 157.734375 30.492188 155.476562 33.597656 152.699219 C 38.335938 148.460938 42.992188 144.101562 47.449219 139.535156 C 48.945312 138.007812 49.722656 135.695312 50.824219 133.730469 C 50.816406 133.71875 50.832031 133.730469 51.066406 133.59375 C 51.589844 133.210938 51.789062 132.902344 51.910156 132.257812 C 51.917969 131.980469 51.902344 131.421875 51.902344 131.421875 C 51.902344 131.421875 51.894531 131.433594 52.261719 131.386719 C 58.242188 127.171875 61.980469 121.894531 61.707031 114.234375 C 61.722656 113.761719 61.734375 113.292969 62.007812 112.207031 C 62.402344 110.914062 62.535156 110.234375 62.671875 109.554688 Z M 62.671875 109.554688 "/>
<path style=" stroke:none;fill-rule:nonzero;fill:rgb(98.431373%,96.470588%,98.823529%);fill-opacity:1;" d="M 42.242188 169.046875 C 43.066406 168.730469 43.890625 168.410156 45.425781 167.972656 C 47.320312 167.296875 48.507812 166.738281 49.980469 166.269531 C 50.730469 165.976562 51.199219 165.59375 52 165.402344 C 54.019531 164.644531 55.703125 163.691406 57.703125 162.707031 C 58.140625 162.492188 58.261719 162.308594 58.773438 162.085938 C 67.089844 157.878906 75.011719 153.714844 83.347656 149.742188 C 86.144531 150.253906 88.527344 150.578125 90.769531 151.28125 C 75.585938 161.402344 60.222656 170.429688 43.261719 175.988281 C 43.683594 174.664062 44.109375 173.339844 44.570312 171.894531 C 41.394531 172.078125 38.679688 172.238281 35.777344 172.039062 C 35.589844 171.683594 35.734375 171.554688 36.132812 171.480469 C 37.6875 171.023438 38.839844 170.644531 40.316406 170.171875 C 41.171875 169.730469 41.707031 169.386719 42.242188 169.046875 Z M 42.242188 169.046875 "/>
<path style=" stroke:none;fill-rule:nonzero;fill:rgb(96.862745%,94.509804%,97.254902%);fill-opacity:1;" d="M 79.855469 49.34375 C 80.90625 50.082031 81.957031 50.820312 83.171875 52.269531 C 83.316406 53.597656 83.292969 54.214844 83.257812 54.84375 C 83.242188 54.859375 83.21875 54.886719 82.804688 54.871094 C 79.703125 54.195312 77.011719 53.539062 74.417969 52.902344 C 74.511719 52.925781 74.316406 52.921875 74.351562 52.566406 C 73.691406 52.058594 72.996094 51.914062 71.992188 51.703125 C 71.179688 51.261719 70.675781 50.878906 70.148438 50.058594 C 67.980469 48.730469 65.84375 47.839844 63.722656 46.925781 C 63.738281 46.902344 63.699219 46.960938 63.652344 46.550781 C 60.628906 44.914062 57.652344 43.6875 54.488281 42.460938 C 54.300781 42.460938 54.035156 42.179688 53.832031 41.929688 C 53.035156 41.519531 52.441406 41.359375 51.867188 41.167969 C 51.886719 41.144531 51.84375 41.195312 51.800781 40.828125 C 51.058594 39.957031 50.359375 39.445312 49.242188 38.925781 C 48.257812 38.96875 47.695312 39.023438 46.957031 39.078125 C 46.773438 39.078125 46.5 38.828125 46.273438 38.570312 C 45.617188 38.214844 45.191406 38.117188 44.648438 38.074219 C 44.535156 38.128906 44.367188 37.9375 44.09375 37.609375 C 43.027344 37.210938 42.234375 37.140625 41.179688 37.109375 C 40.5625 37.070312 40.257812 36.898438 39.769531 36.320312 C 37.074219 34.3125 34.636719 33.191406 32.144531 36.519531 C 31.492188 36.6875 31.109375 36.742188 30.328125 36.773438 C 29.382812 37.265625 28.839844 37.789062 28.101562 38.605469 C 27.535156 40.03125 27.167969 41.160156 26.589844 42.453125 C 26.132812 42.886719 25.972656 43.207031 25.90625 43.578125 C 25.757812 41.582031 24.777344 38.4375 25.59375 37.777344 C 30.09375 34.140625 28.992188 29.199219 29.257812 24.484375 C 29.324219 23.277344 30.03125 22.113281 31.246094 20.78125 C 32.320312 20.679688 32.597656 20.726562 32.75 21.175781 C 32.484375 22.386719 32.347656 23.203125 32.09375 24.183594 C 32.21875 24.574219 32.460938 24.804688 32.984375 25.160156 C 33.71875 25.992188 34.167969 26.699219 34.828125 27.6875 C 35.90625 28.195312 36.773438 28.425781 37.644531 28.652344 C 37.644531 28.652344 37.773438 28.640625 37.804688 29.128906 C 40.117188 30.742188 42.402344 31.867188 45.074219 33.027344 C 50.582031 35.230469 55.707031 37.394531 60.832031 39.5625 C 60.832031 39.5625 61.007812 39.742188 61.398438 39.976562 C 67.808594 43.257812 73.832031 46.300781 79.855469 49.34375 Z M 79.855469 49.34375 "/>
<path style=" stroke:none;fill-rule:nonzero;fill:rgb(20%,14.117647%,40.392157%);fill-opacity:1;" d="M 62.714844 180.585938 C 73.894531 177.277344 85.171875 174.285156 96.222656 170.554688 C 105.324219 167.480469 114.164062 163.527344 123.117188 159.964844 C 123.941406 159.636719 125.089844 159.558594 125.53125 158.929688 C 128.40625 154.828125 132.316406 154.757812 136.929688 155.492188 C 127.144531 160.304688 117.160156 165.8125 106.644531 169.714844 C 92.113281 175.105469 77.179688 179.289062 62.039062 183.648438 C 62.011719 182.402344 62.363281 181.492188 62.714844 180.585938 Z M 62.714844 180.585938 "/>
<path style=" stroke:none;fill-rule:nonzero;fill:rgb(27.058824%,21.176471%,45.490196%);fill-opacity:1;" d="M 178.722656 125.566406 C 178.601562 123.769531 178.324219 121.542969 179.203125 120.117188 C 188.679688 104.734375 187.882812 90.066406 176.921875 75.910156 C 176.78125 75.730469 177.042969 75.199219 177.238281 74.5 C 177.554688 74.066406 177.75 73.96875 178.265625 74.019531 C 178.890625 74.542969 179.199219 74.914062 179.507812 75.285156 C 193.226562 89.96875 191.347656 110.945312 178.722656 125.566406 Z M 178.722656 125.566406 "/>
<path style=" stroke:none;fill-rule:nonzero;fill:rgb(19.607843%,13.333333%,40.784314%);fill-opacity:1;" d="M 42.917969 176.082031 C 60.222656 170.429688 75.585938 161.402344 91.160156 151.277344 C 92.476562 150.867188 93.257812 150.839844 94.035156 150.8125 C 90.785156 153.628906 87.808594 156.9375 84.226562 159.152344 C 77.667969 163.203125 70.761719 166.625 63.980469 170.265625 C 61.703125 171.492188 59.359375 172.582031 56.25 173.792969 C 53.542969 174.945312 51.628906 176.039062 49.292969 177.144531 C 45.578125 177.921875 42.285156 178.683594 38.988281 179.445312 C 40.1875 178.355469 41.382812 177.265625 42.917969 176.082031 Z M 42.917969 176.082031 "/>
<path style=" stroke:none;fill-rule:nonzero;fill:rgb(50.588235%,9.411765%,43.137255%);fill-opacity:1;" d="M 45.382812 59.457031 C 49.628906 64.324219 55.15625 68.523438 57.820312 74.214844 C 61.6875 82.472656 63.34375 91.867188 66.25 100.664062 C 67.460938 104.324219 66.019531 105.945312 62.871094 107.382812 C 64.503906 89.347656 56.996094 75.078125 45.515625 61.671875 C 45.375 60.449219 45.378906 59.953125 45.382812 59.457031 Z M 45.382812 59.457031 "/>
<path style=" stroke:none;fill-rule:nonzero;fill:rgb(49.411765%,10.196078%,41.568627%);fill-opacity:1;" d="M 50.832031 133.742188 C 49.722656 135.695312 48.945312 138.007812 47.449219 139.535156 C 42.992188 144.101562 38.335938 148.460938 33.597656 152.699219 C 30.492188 155.476562 26.96875 157.734375 23.890625 160.535156 C 20.824219 163.328125 19.945312 166.757812 22.679688 171.261719 C 22.675781 172.242188 22.648438 172.480469 22.621094 172.71875 C 17.121094 167.476562 16.828125 164.125 22.371094 158.765625 C 30.324219 151.074219 38.644531 143.804688 47.402344 135.984375 C 48.191406 134.960938 48.378906 134.304688 48.566406 133.652344 C 48.566406 133.652344 48.632812 133.679688 48.984375 133.695312 C 49.832031 133.71875 50.332031 133.730469 50.832031 133.742188 Z M 50.832031 133.742188 "/>
<path style=" stroke:none;fill-rule:nonzero;fill:rgb(21.176471%,13.333333%,46.27451%);fill-opacity:1;" d="M 38.78125 179.769531 C 42.285156 178.683594 45.578125 177.921875 49.230469 177.515625 C 49.128906 178.933594 48.667969 179.992188 48.25 180.960938 C 50.449219 181.675781 52.253906 182.261719 53.796875 183.140625 C 51.519531 184.855469 49.5 186.273438 47.480469 187.695312 C 42.597656 187.945312 37.710938 188.195312 32.828125 188.449219 C 32.582031 187.601562 32.339844 186.753906 32.097656 185.90625 C 34.257812 183.96875 36.414062 182.03125 38.78125 179.769531 Z M 38.78125 179.769531 "/>
<path style=" stroke:none;fill-rule:nonzero;fill:rgb(23.529412%,18.431373%,41.960784%);fill-opacity:1;" d="M 149.160156 147.421875 C 155.253906 142.765625 161.3125 138.0625 167.472656 133.507812 C 168.398438 132.824219 169.792969 132.847656 171.375 132.53125 C 164.492188 138.105469 157.199219 143.695312 149.546875 149.046875 C 149.179688 148.34375 149.171875 147.882812 149.160156 147.421875 Z M 149.160156 147.421875 "/>
<path style=" stroke:none;fill-rule:nonzero;fill:rgb(21.568627%,10.980392%,52.941176%);fill-opacity:1;" d="M 54.058594 182.847656 C 52.253906 182.261719 50.449219 181.675781 48.25 180.960938 C 48.667969 179.992188 49.128906 178.933594 49.652344 177.5 C 51.628906 176.039062 53.542969 174.945312 55.828125 173.816406 C 56.472656 177.679688 58.460938 179.75 62.433594 180.292969 C 62.363281 181.492188 62.011719 182.402344 61.6875 183.699219 C 61.71875 184.089844 61.691406 184.066406 61.390625 184.042969 C 60.894531 184.007812 60.703125 184.003906 60.507812 184 C 60.507812 184 60 183.914062 59.457031 183.640625 C 57.296875 183.191406 55.675781 183.019531 54.058594 182.847656 Z M 54.058594 182.847656 "/>
<path style=" stroke:none;fill-rule:nonzero;fill:rgb(16.862745%,10.588235%,38.823529%);fill-opacity:1;" d="M 125.1875 39.667969 C 116.015625 39.863281 107.828125 35.75 99.566406 31.230469 C 108.003906 33.640625 116.515625 36.464844 125.1875 39.667969 Z M 125.1875 39.667969 "/>
<path style=" stroke:none;fill-rule:nonzero;fill:rgb(16.862745%,10.588235%,38.823529%);fill-opacity:1;" d="M 150.238281 52.15625 C 142.113281 48.625 133.933594 44.699219 125.566406 40.429688 C 134.667969 41.550781 142.746094 45.890625 150.238281 52.15625 Z M 150.238281 52.15625 "/>
<path style=" stroke:none;fill-rule:nonzero;fill:rgb(52.54902%,15.294118%,44.705882%);fill-opacity:1;" d="M 61.339844 114.378906 C 61.980469 121.894531 58.242188 127.171875 52.253906 131.390625 C 52.214844 130.078125 52.265625 128.519531 52.9375 127.378906 C 55.507812 123.019531 58.277344 118.792969 61.339844 114.378906 Z M 61.339844 114.378906 "/>
<path style=" stroke:none;fill-rule:nonzero;fill:rgb(19.607843%,14.901961%,39.215686%);fill-opacity:1;" d="M 170.890625 66.945312 C 165.871094 63.429688 160.828125 59.503906 155.753906 55.179688 C 160.769531 58.695312 165.816406 62.617188 170.890625 66.945312 Z M 170.890625 66.945312 "/>
<path style=" stroke:none;fill-rule:nonzero;fill:rgb(22.745098%,16.862745%,41.568627%);fill-opacity:1;" d="M 148.820312 147.589844 C 149.171875 147.882812 149.179688 148.34375 149.191406 149.148438 C 145.515625 151.472656 141.835938 153.449219 137.761719 155.476562 C 137.210938 150.371094 141.765625 150.976562 144.601562 148.863281 C 144.863281 148.570312 144.875 148.558594 144.875 148.558594 C 146.078125 148.289062 147.28125 148.023438 148.820312 147.589844 Z M 148.820312 147.589844 "/>
<path style=" stroke:none;fill-rule:nonzero;fill:rgb(20%,14.117647%,40.392157%);fill-opacity:1;" d="M 53.796875 183.140625 C 55.675781 183.019531 57.296875 183.191406 59.203125 183.664062 C 55.628906 185.359375 51.769531 186.753906 47.695312 187.921875 C 49.5 186.273438 51.519531 184.855469 53.796875 183.140625 Z M 53.796875 183.140625 "/>
<path style=" stroke:none;fill-rule:nonzero;fill:rgb(49.411765%,10.196078%,41.568627%);fill-opacity:1;" d="M 42.140625 168.660156 C 41.707031 169.386719 41.171875 169.730469 40.089844 169.898438 C 38.269531 170.335938 37.003906 170.945312 35.734375 171.554688 C 35.734375 171.554688 35.589844 171.683594 35.496094 171.679688 C 34.996094 171.96875 34.585938 172.257812 33.707031 172.347656 C 32.574219 171.886719 31.914062 171.625 31.253906 171.363281 C 34.1875 167.769531 37.71875 166.484375 42.140625 168.660156 Z M 42.140625 168.660156 "/>
<path style=" stroke:none;fill-rule:nonzero;fill:rgb(16.470588%,10.196078%,35.294118%);fill-opacity:1;" d="M 34.617188 27.402344 C 34.167969 26.699219 33.71875 25.992188 32.925781 24.871094 C 32.457031 24.3125 32.332031 24.167969 32.207031 24.023438 C 32.347656 23.203125 32.484375 22.386719 33.054688 21.097656 C 34.222656 20.214844 34.964844 19.808594 35.707031 19.398438 C 35.902344 19.433594 36.097656 19.46875 36.566406 19.625 C 36.449219 21.972656 36.0625 24.199219 35.402344 26.953125 C 35.136719 27.476562 34.617188 27.402344 34.617188 27.402344 Z M 34.617188 27.402344 "/>
<path style=" stroke:none;fill-rule:nonzero;fill:rgb(16.470588%,10.196078%,35.294118%);fill-opacity:1;" d="M 56 20.175781 C 53.863281 20.457031 51.496094 20.410156 48.921875 20.039062 C 51.066406 19.757812 53.417969 19.800781 56 20.175781 Z M 56 20.175781 "/>
<path style=" stroke:none;fill-rule:nonzero;fill:rgb(50.980392%,15.294118%,45.098039%);fill-opacity:1;" d="M 30.839844 171.371094 C 31.914062 171.625 32.574219 171.886719 33.449219 172.449219 C 30.09375 172.921875 26.527344 173.097656 22.789062 172.996094 C 22.648438 172.480469 22.675781 172.242188 22.753906 171.648438 C 23.5625 171.3125 24.320312 171.335938 25.78125 171.382812 C 26.695312 171.394531 26.910156 171.386719 27.125 171.378906 C 28.226562 171.378906 29.328125 171.378906 30.839844 171.371094 Z M 30.839844 171.371094 "/>
<path style=" stroke:none;fill-rule:nonzero;fill:rgb(14.509804%,8.627451%,34.509804%);fill-opacity:1;" d="M 91.761719 28.121094 C 89.183594 28.011719 86.4375 27.585938 83.488281 26.832031 C 86.054688 26.941406 88.820312 27.375 91.761719 28.121094 Z M 91.761719 28.121094 "/>
<path style=" stroke:none;fill-rule:nonzero;fill:rgb(56.862745%,21.960784%,50.196078%);fill-opacity:1;" d="M 34.621094 50.148438 C 35.820312 50.808594 37.015625 51.464844 38.523438 52.726562 C 38.941406 53.777344 39.042969 54.222656 38.941406 54.964844 C 38.632812 55.484375 38.53125 55.707031 38.429688 55.925781 C 36.886719 54.75 35.34375 53.574219 33.757812 51.6875 C 33.726562 50.726562 33.738281 50.472656 33.964844 50.199219 C 34.183594 50.175781 34.621094 50.148438 34.621094 50.148438 Z M 34.621094 50.148438 "/>
<path style=" stroke:none;fill-rule:nonzero;fill:rgb(56.862745%,21.960784%,50.196078%);fill-opacity:1;" d="M 45.390625 59.445312 C 45.378906 59.953125 45.375 60.449219 45.382812 61.316406 C 43.378906 60.179688 41.359375 58.671875 39.476562 56.660156 C 39.8125 56.003906 40.015625 55.855469 40.445312 55.765625 C 40.671875 55.824219 41.136719 55.875 41.136719 55.875 C 41.136719 55.875 41.152344 55.914062 41.347656 56.230469 C 42.820312 57.507812 44.101562 58.472656 45.382812 59.4375 C 45.382812 59.4375 45.398438 59.433594 45.390625 59.445312 Z M 45.390625 59.445312 "/>
<path style=" stroke:none;fill-rule:nonzero;fill:rgb(16.470588%,10.196078%,35.294118%);fill-opacity:1;" d="M 45.027344 19.6875 C 43.46875 19.941406 41.445312 20.078125 39.160156 19.953125 C 40.789062 19.652344 42.679688 19.613281 45.027344 19.6875 Z M 45.027344 19.6875 "/>
<path style=" stroke:none;fill-rule:nonzero;fill:rgb(14.509804%,8.627451%,34.509804%);fill-opacity:1;" d="M 81.984375 25.90625 C 80.101562 25.871094 78 25.492188 75.734375 24.738281 C 77.640625 24.761719 79.703125 25.164062 81.984375 25.90625 Z M 81.984375 25.90625 "/>
<path style=" stroke:none;fill-rule:nonzero;fill:rgb(16.862745%,10.588235%,38.823529%);fill-opacity:1;" d="M 154.285156 53.660156 C 152.75 57.480469 151.648438 54.753906 150.339844 52.917969 C 151.503906 52.851562 152.726562 53.15625 154.285156 53.660156 Z M 154.285156 53.660156 "/>
<path style=" stroke:none;fill-rule:nonzero;fill:rgb(94.509804%,80.392157%,91.372549%);fill-opacity:1;" d="M 25.910156 43.949219 C 25.972656 43.207031 26.132812 42.886719 26.820312 42.726562 C 27.820312 43.890625 28.382812 44.941406 28.707031 46.246094 C 28.300781 46.660156 28.140625 46.824219 27.976562 46.988281 C 27.289062 46.101562 26.601562 45.210938 25.910156 43.949219 Z M 25.910156 43.949219 "/>
<path style=" stroke:none;fill-rule:nonzero;fill:rgb(94.901961%,90.196078%,96.470588%);fill-opacity:1;" d="M 35.585938 19.019531 C 34.964844 19.808594 34.222656 20.214844 33.179688 20.699219 C 32.597656 20.726562 32.320312 20.679688 31.625 20.570312 C 32.625 19.886719 34.042969 19.261719 35.585938 19.019531 Z M 35.585938 19.019531 "/>
<path style=" stroke:none;fill-rule:nonzero;fill:rgb(14.509804%,8.627451%,34.509804%);fill-opacity:1;" d="M 96.101562 29.132812 C 95.566406 29.433594 94.855469 29.4375 94.058594 29.128906 C 94.625 28.824219 95.273438 28.828125 96.101562 29.132812 Z M 96.101562 29.132812 "/>
<path style=" stroke:none;fill-rule:nonzero;fill:rgb(52.54902%,15.294118%,44.705882%);fill-opacity:1;" d="M 50.824219 133.730469 C 50.332031 133.730469 49.832031 133.71875 48.960938 133.664062 C 49.453125 132.890625 50.320312 132.15625 51.542969 131.425781 C 51.902344 131.421875 51.917969 131.980469 51.683594 132.402344 C 51.160156 133.066406 50.957031 133.367188 50.832031 133.730469 C 50.832031 133.730469 50.816406 133.71875 50.824219 133.730469 Z M 50.824219 133.730469 "/>
<path style=" stroke:none;fill-rule:nonzero;fill:rgb(94.509804%,80.392157%,91.372549%);fill-opacity:1;" d="M 30.140625 49.273438 C 29.445312 48.777344 28.75 48.28125 28.015625 47.386719 C 28.140625 46.824219 28.300781 46.660156 28.960938 46.445312 C 30.023438 47.058594 30.589844 47.726562 30.898438 48.609375 C 30.476562 48.976562 30.308594 49.125 30.140625 49.273438 Z M 30.140625 49.273438 "/>
<path style=" stroke:none;fill-rule:nonzero;fill:rgb(94.509804%,80.392157%,91.372549%);fill-opacity:1;" d="M 33.746094 50.21875 C 33.738281 50.472656 33.726562 50.726562 33.601562 51.339844 C 32.824219 51.503906 32.160156 51.304688 31.578125 50.480469 C 31.792969 49.652344 31.933594 49.457031 32.355469 49.410156 C 33.007812 49.777344 33.375 49.996094 33.746094 50.21875 Z M 33.746094 50.21875 "/>
<path style=" stroke:none;fill-rule:nonzero;fill:rgb(52.54902%,15.294118%,44.705882%);fill-opacity:1;" d="M 48.242188 133.777344 C 48.378906 134.304688 48.191406 134.960938 47.714844 135.792969 C 47.589844 135.285156 47.753906 134.59375 48.242188 133.777344 Z M 48.242188 133.777344 "/>
<path style=" stroke:none;fill-rule:nonzero;fill:rgb(20.784314%,11.372549%,49.411765%);fill-opacity:1;" d="M 179.582031 74.964844 C 179.199219 74.914062 178.890625 74.542969 178.519531 73.796875 C 178.855469 73.828125 179.253906 74.234375 179.582031 74.964844 Z M 179.582031 74.964844 "/>
<path style=" stroke:none;fill-rule:nonzero;fill:rgb(52.54902%,15.294118%,44.705882%);fill-opacity:1;" d="M 62.34375 109.730469 C 62.535156 110.234375 62.402344 110.914062 62.039062 111.855469 C 61.878906 111.378906 61.949219 110.644531 62.34375 109.730469 Z M 62.34375 109.730469 "/>
<path style=" stroke:none;fill-rule:nonzero;fill:rgb(14.509804%,8.627451%,34.509804%);fill-opacity:1;" d="M 72.355469 23.71875 C 72.117188 23.875 71.847656 23.679688 71.476562 23.191406 C 71.640625 23.136719 71.953125 23.292969 72.355469 23.71875 Z M 72.355469 23.71875 "/>
<path style=" stroke:none;fill-rule:nonzero;fill:rgb(16.470588%,10.196078%,35.294118%);fill-opacity:1;" d="M 47.34375 19.324219 C 47.371094 19.527344 47.023438 19.53125 46.851562 19.527344 C 46.890625 19.390625 47.105469 19.253906 47.34375 19.324219 Z M 47.34375 19.324219 "/>
<path style=" stroke:none;fill-rule:nonzero;fill:rgb(16.470588%,10.196078%,35.294118%);fill-opacity:1;" d="M 38.683594 19.34375 C 38.699219 19.550781 38.355469 19.539062 38.1875 19.53125 C 38.234375 19.398438 38.453125 19.265625 38.683594 19.34375 Z M 38.683594 19.34375 "/>
<path style=" stroke:none;fill-rule:nonzero;fill:rgb(14.509804%,8.627451%,34.509804%);fill-opacity:1;" d="M 74.328125 23.945312 C 74.332031 24.148438 74.03125 24.144531 73.886719 24.140625 C 73.933594 24.007812 74.128906 23.875 74.328125 23.945312 Z M 74.328125 23.945312 "/>
<path style=" stroke:none;fill-rule:nonzero;fill:rgb(20%,14.117647%,40.392157%);fill-opacity:1;" d="M 60.59375 184.226562 C 60.703125 184.003906 60.894531 184.007812 61.378906 184.046875 C 61.335938 184.207031 61.007812 184.332031 60.59375 184.226562 Z M 60.59375 184.226562 "/>
<path style=" stroke:none;fill-rule:nonzero;fill:rgb(56.862745%,21.960784%,50.196078%);fill-opacity:1;" d="M 39.273438 56.316406 C 38.933594 56.476562 38.546875 56.152344 38.488281 56.039062 C 38.53125 55.707031 38.632812 55.484375 39.132812 55.121094 C 39.78125 55.195312 40.011719 55.441406 40.21875 55.703125 C 40.015625 55.855469 39.8125 56.003906 39.273438 56.316406 Z M 39.273438 56.316406 "/>
<path style=" stroke:none;fill-rule:nonzero;fill:rgb(16.862745%,10.588235%,38.823529%);fill-opacity:1;" d="M 99.417969 30.550781 C 99.179688 30.722656 98.90625 30.542969 98.527344 30.089844 C 98.695312 30.019531 99.019531 30.144531 99.417969 30.550781 Z M 99.417969 30.550781 "/>
<path style=" stroke:none;fill-rule:nonzero;fill:rgb(94.509804%,80.392157%,91.372549%);fill-opacity:1;" d="M 31.441406 50.140625 C 30.917969 50.230469 30.613281 50.03125 30.226562 49.550781 C 30.308594 49.125 30.476562 48.976562 31.074219 48.726562 C 31.726562 48.804688 31.914062 49.015625 32.070312 49.257812 C 31.933594 49.457031 31.792969 49.652344 31.441406 50.140625 Z M 31.441406 50.140625 "/>
<path style=" stroke:none;fill-rule:nonzero;fill:rgb(96.862745%,94.509804%,97.254902%);fill-opacity:1;" d="M 94.066406 150.53125 C 93.257812 150.839844 92.476562 150.867188 91.304688 150.894531 C 88.527344 150.578125 86.144531 150.253906 83.542969 149.398438 C 94.484375 141.507812 104.332031 132.730469 110.660156 120.261719 C 114.410156 112.863281 116.0625 105.054688 113.78125 96.511719 C 113.804688 96.308594 113.5625 95.992188 113.589844 95.5625 C 112.289062 92.261719 110.964844 89.386719 109.550781 86.539062 C 109.464844 86.5625 109.605469 86.445312 109.542969 86.0625 C 107.726562 83.253906 105.972656 80.832031 104.03125 78.621094 C 103.96875 78.691406 104.097656 78.546875 104.140625 78.148438 C 103.835938 77.601562 103.699219 77.269531 103.671875 76.457031 C 102.617188 75.082031 101.546875 74.144531 100.503906 73.175781 C 100.53125 73.140625 100.492188 73.222656 100.375 72.960938 C 99.964844 72.484375 99.671875 72.269531 99.414062 72.03125 C 99.449219 72.007812 99.410156 72.085938 99.285156 71.820312 C 98.847656 71.355469 98.53125 71.152344 98.261719 70.941406 C 98.304688 70.933594 98.292969 71.027344 98.179688 70.75 C 97.75 70.257812 97.433594 70.042969 97.136719 69.847656 C 97.152344 69.863281 97.101562 69.875 97.144531 69.429688 C 96.851562 62.730469 91.898438 63.445312 88.15625 62.292969 C 88.144531 62.273438 88.136719 62.226562 88.230469 61.820312 C 86.625 59.238281 84.921875 57.0625 83.21875 54.886719 C 83.21875 54.886719 83.242188 54.859375 83.675781 54.914062 C 85.761719 55.253906 87.421875 55.539062 89.078125 55.824219 C 89.574219 56.0625 90.070312 56.300781 90.898438 57.066406 C 91.625 57.769531 92.023438 57.9375 92.421875 58.109375 C 92.421875 58.109375 92.785156 58.152344 93.035156 58.527344 C 93.53125 59.164062 93.828125 59.3125 94.175781 59.351562 C 94.175781 59.351562 94.089844 59.410156 94.140625 59.773438 C 96.578125 61.453125 98.964844 62.773438 101.351562 64.089844 C 101.734375 64.230469 102.117188 64.371094 102.632812 65.167969 C 103.132812 66.367188 103.5 66.902344 104.082031 67.746094 C 109.984375 74.867188 115.667969 81.6875 121.355469 88.503906 C 121.355469 88.503906 121.394531 88.617188 121.410156 89.015625 C 121.804688 90.21875 122.1875 91.027344 122.566406 91.832031 C 122.566406 91.832031 122.597656 91.902344 122.667969 92.402344 C 127.511719 108.292969 122.601562 123.539062 107.457031 137.53125 C 103.0625 141.589844 98.683594 145.664062 94.296875 149.730469 C 94.296875 149.730469 94.09375 150.25 94.066406 150.53125 Z M 94.066406 150.53125 "/>
<path style=" stroke:none;fill-rule:nonzero;fill:rgb(57.647059%,52.156863%,75.294118%);fill-opacity:1;" d="M 169.804688 119.785156 C 174.152344 108.738281 173.136719 97.730469 169.839844 86.070312 C 171.523438 84.6875 172.976562 83.972656 174.613281 83.292969 C 174.796875 83.328125 175.160156 83.414062 175.160156 83.414062 C 175.175781 83.789062 175.21875 84.164062 175.339844 85.167969 C 175.714844 86.144531 176.027344 86.488281 176.34375 86.832031 C 180.65625 92.597656 179.402344 99.308594 178.996094 106.632812 C 175.78125 111.546875 172.792969 115.664062 169.804688 119.785156 Z M 169.804688 119.785156 "/>
<path style=" stroke:none;fill-rule:nonzero;fill:rgb(22.352941%,14.901961%,42.745098%);fill-opacity:1;" d="M 94.703125 149.726562 C 98.683594 145.664062 103.0625 141.589844 107.457031 137.53125 C 122.601562 123.539062 127.511719 108.292969 122.664062 92.441406 C 123.882812 95.601562 125.9375 99.140625 126.308594 102.867188 C 126.964844 109.4375 124.714844 115.359375 122.40625 121.679688 C 118.191406 133.234375 108.1875 138.527344 101.460938 147.207031 C 100.222656 148.808594 97.269531 148.921875 94.703125 149.726562 Z M 94.703125 149.726562 "/>
<path style=" stroke:none;fill-rule:nonzero;fill:rgb(21.960784%,14.117647%,45.882353%);fill-opacity:1;" d="M 162.261719 74.261719 C 157.203125 70.675781 150.957031 68.394531 148.871094 61.171875 C 153.457031 60.09375 163.238281 65.707031 164.875 70.519531 C 163.425781 70.644531 162.378906 70.480469 161.332031 70.316406 C 161.640625 71.632812 161.949219 72.945312 162.261719 74.261719 Z M 162.261719 74.261719 "/>
<path style=" stroke:none;fill-rule:nonzero;fill:rgb(58.431373%,51.764706%,77.254902%);fill-opacity:1;" d="M 162.496094 74.441406 C 161.949219 72.945312 161.640625 71.632812 161.332031 70.316406 C 162.378906 70.480469 163.425781 70.644531 164.828125 70.941406 C 165.183594 71.074219 165.253906 71.058594 165.40625 71.367188 C 166.902344 73.0625 168.25 74.449219 169.597656 75.839844 C 169.640625 76.140625 169.785156 76.378906 170.375 76.96875 C 171.804688 78.679688 172.878906 79.976562 173.953125 81.273438 C 173.953125 81.273438 173.96875 81.15625 173.988281 81.546875 C 174.148438 82.375 174.289062 82.816406 174.429688 83.257812 C 172.976562 83.972656 171.523438 84.6875 169.785156 85.621094 C 167.707031 82.824219 165.910156 79.808594 163.746094 76.597656 C 163.378906 76.402344 163.414062 76.269531 163.414062 76.269531 C 163.1875 75.71875 162.960938 75.167969 162.496094 74.441406 Z M 162.496094 74.441406 "/>
<path style=" stroke:none;fill-rule:nonzero;fill:rgb(22.745098%,16.862745%,42.352941%);fill-opacity:1;" d="M 121.5625 88.066406 C 115.667969 81.6875 109.984375 74.867188 104.136719 67.371094 C 103.863281 66.203125 103.75 65.714844 103.632812 65.222656 C 111.589844 70.964844 120.199219 76.113281 121.5625 88.066406 Z M 121.5625 88.066406 "/>
<path style=" stroke:none;fill-rule:nonzero;fill:rgb(22.352941%,18.039216%,43.137255%);fill-opacity:1;" d="M 79.878906 48.90625 C 73.832031 46.300781 67.808594 43.257812 61.519531 39.976562 C 65.804688 41.296875 70.433594 42.652344 74.875 44.503906 C 76.753906 45.289062 78.238281 47.117188 79.878906 48.90625 Z M 79.878906 48.90625 "/>
<path style=" stroke:none;fill-rule:nonzero;fill:rgb(20.392157%,12.941176%,45.882353%);fill-opacity:1;" d="M 169.792969 120.191406 C 172.792969 115.664062 175.78125 111.546875 179.058594 107.121094 C 177.253906 111.746094 175.375 116.800781 172.957031 121.546875 C 171.996094 123.433594 170.007812 124.089844 169.792969 120.191406 Z M 169.792969 120.191406 "/>
<path style=" stroke:none;fill-rule:nonzero;fill:rgb(22.352941%,18.039216%,43.137255%);fill-opacity:1;" d="M 60.886719 39.164062 C 55.707031 37.394531 50.582031 35.230469 45.003906 32.785156 C 44.550781 32.507812 44.570312 32.003906 44.570312 32.003906 C 50.027344 34.257812 55.484375 36.511719 60.886719 39.164062 Z M 60.886719 39.164062 "/>
<path style=" stroke:none;fill-rule:nonzero;fill:rgb(94.901961%,90.196078%,96.470588%);fill-opacity:1;" d="M 44.3125 31.695312 C 44.570312 32.003906 44.550781 32.507812 44.617188 32.75 C 42.402344 31.867188 40.117188 30.742188 37.800781 29.199219 C 39.863281 29.648438 41.960938 30.515625 44.3125 31.695312 Z M 44.3125 31.695312 "/>
<path style=" stroke:none;fill-rule:nonzero;fill:rgb(94.901961%,90.196078%,96.470588%);fill-opacity:1;" d="M 101.285156 63.710938 C 98.964844 62.773438 96.578125 61.453125 94.164062 59.726562 C 96.496094 60.652344 98.855469 61.992188 101.285156 63.710938 Z M 101.285156 63.710938 "/>
<path style=" stroke:none;fill-rule:nonzero;fill:rgb(21.960784%,14.117647%,45.882353%);fill-opacity:1;" d="M 169.625 75.375 C 168.25 74.449219 166.902344 73.0625 165.425781 71.332031 C 166.746094 72.300781 168.199219 73.605469 169.625 75.375 Z M 169.625 75.375 "/>
<path style=" stroke:none;fill-rule:nonzero;fill:rgb(94.901961%,90.196078%,96.470588%);fill-opacity:1;" d="M 88.867188 55.496094 C 87.421875 55.539062 85.761719 55.253906 83.6875 54.898438 C 83.292969 54.214844 83.316406 53.597656 83.382812 52.519531 C 85.171875 53.097656 86.914062 54.132812 88.867188 55.496094 Z M 88.867188 55.496094 "/>
<path style=" stroke:none;fill-rule:nonzero;fill:rgb(21.960784%,14.117647%,45.882353%);fill-opacity:1;" d="M 173.976562 80.832031 C 172.878906 79.976562 171.804688 78.679688 170.566406 77.050781 C 171.597656 77.941406 172.796875 79.167969 173.976562 80.832031 Z M 173.976562 80.832031 "/>
<path style=" stroke:none;fill-rule:nonzero;fill:rgb(21.960784%,14.117647%,45.882353%);fill-opacity:1;" d="M 174.613281 83.292969 C 174.289062 82.816406 174.148438 82.375 173.953125 81.589844 C 174.464844 81.824219 175.03125 82.402344 175.378906 83.195312 C 175.160156 83.414062 174.796875 83.328125 174.613281 83.292969 Z M 174.613281 83.292969 "/>
<path style=" stroke:none;fill-rule:nonzero;fill:rgb(94.901961%,90.196078%,96.470588%);fill-opacity:1;" d="M 34.828125 27.6875 C 34.617188 27.402344 35.136719 27.476562 35.386719 27.394531 C 36.265625 27.527344 36.894531 27.742188 37.585938 28.304688 C 36.773438 28.425781 35.90625 28.195312 34.828125 27.6875 Z M 34.828125 27.6875 "/>
<path style=" stroke:none;fill-rule:nonzero;fill:rgb(22.745098%,16.862745%,42.352941%);fill-opacity:1;" d="M 122.746094 91.421875 C 122.1875 91.027344 121.804688 90.21875 121.425781 89.070312 C 121.921875 89.492188 122.421875 90.25 122.746094 91.421875 Z M 122.746094 91.421875 "/>
<path style=" stroke:none;fill-rule:nonzero;fill:rgb(94.901961%,90.196078%,96.470588%);fill-opacity:1;" d="M 103.402344 65.1875 C 103.75 65.714844 103.863281 66.203125 103.921875 67.070312 C 103.5 66.902344 103.132812 66.367188 102.738281 65.480469 C 102.710938 65.136719 103.175781 65.152344 103.402344 65.1875 Z M 103.402344 65.1875 "/>
<path style=" stroke:none;fill-rule:nonzero;fill:rgb(94.901961%,90.196078%,96.470588%);fill-opacity:1;" d="M 92.238281 57.816406 C 92.023438 57.9375 91.625 57.769531 91.035156 57.320312 C 91.246094 57.203125 91.652344 57.363281 92.238281 57.816406 Z M 92.238281 57.816406 "/>
<path style=" stroke:none;fill-rule:nonzero;fill:rgb(22.745098%,16.862745%,41.568627%);fill-opacity:1;" d="M 144.859375 148.578125 C 144.851562 148.582031 144.433594 148.296875 144.433594 148.296875 C 144.433594 148.296875 144.757812 148.308594 144.816406 148.433594 C 144.875 148.558594 144.863281 148.570312 144.859375 148.578125 Z M 144.859375 148.578125 "/>
<path style=" stroke:none;fill-rule:nonzero;fill:rgb(94.901961%,90.196078%,96.470588%);fill-opacity:1;" d="M 94.0625 59.097656 C 93.828125 59.3125 93.53125 59.164062 93.140625 58.6875 C 93.375 58.417969 93.695312 58.542969 94.0625 59.097656 Z M 94.0625 59.097656 "/>
<path style=" stroke:none;fill-rule:nonzero;fill:rgb(21.960784%,14.117647%,45.882353%);fill-opacity:1;" d="M 163.441406 76.386719 C 163.386719 76.414062 163.265625 76.453125 163.277344 76.378906 C 163.414062 76.269531 163.378906 76.402344 163.441406 76.386719 Z M 163.441406 76.386719 "/>
<path style=" stroke:none;fill-rule:nonzero;fill:rgb(58.431373%,51.764706%,77.254902%);fill-opacity:1;" d="M 176.238281 86.484375 C 176.027344 86.488281 175.714844 86.144531 175.300781 85.445312 C 175.515625 85.441406 175.824219 85.789062 176.238281 86.484375 Z M 176.238281 86.484375 "/>
<path style=" stroke:none;fill-rule:nonzero;fill:rgb(54.117647%,16.078431%,47.45098%);fill-opacity:1;" d="M 113.757812 96.714844 C 116.0625 105.054688 114.410156 112.863281 110.660156 120.261719 C 104.332031 132.730469 94.484375 141.507812 83.132812 149.207031 C 75.011719 153.714844 67.089844 157.878906 58.757812 161.800781 C 58.351562 161.5625 58.3125 161 58.3125 161 C 70.367188 152.972656 82.605469 145.230469 94.375 136.761719 C 98.375 133.882812 101.195312 129.171875 105.046875 124.761719 C 106.074219 122.828125 106.613281 121.429688 107.378906 119.824219 C 107.796875 119.027344 107.984375 118.433594 108.546875 117.722656 C 109.757812 116.027344 111.03125 114.542969 111.347656 112.859375 C 112.34375 107.519531 112.980469 102.101562 113.757812 96.714844 Z M 113.757812 96.714844 "/>
<path style=" stroke:none;fill-rule:nonzero;fill:rgb(58.039216%,8.235294%,48.627451%);fill-opacity:1;" d="M 108.167969 117.84375 C 107.984375 118.433594 107.796875 119.027344 107 119.773438 C 104.050781 119.015625 101.960938 118.660156 101.632812 122.28125 C 101.199219 122.613281 100.761719 122.945312 99.152344 124.175781 C 99.65625 119.542969 100.273438 115.898438 100.394531 112.234375 C 100.53125 108.050781 100.8125 103.722656 99.992188 99.691406 C 98.652344 93.085938 96.257812 86.726562 94.796875 80.144531 C 94.390625 78.3125 95.703125 76.054688 96.570312 73.75 C 99.351562 75.136719 101.785156 76.773438 104.222656 78.40625 C 104.097656 78.546875 103.96875 78.691406 103.917969 79.054688 C 104.648438 81.378906 105.308594 83.480469 105.84375 85.890625 C 105.433594 86.789062 105.140625 87.382812 104.542969 87.839844 C 100.210938 87.109375 101.25 89.886719 101.574219 92.675781 C 102.671875 98.304688 103.761719 103.449219 105 108.929688 C 105.441406 110.195312 105.738281 111.121094 105.996094 112.390625 C 106.695312 114.433594 107.433594 116.136719 108.167969 117.84375 Z M 108.167969 117.84375 "/>
<path style=" stroke:none;fill-rule:nonzero;fill:rgb(50.588235%,12.156863%,43.529412%);fill-opacity:1;" d="M 32.355469 49.410156 C 31.914062 49.015625 31.726562 48.804688 31.328125 48.507812 C 30.589844 47.726562 30.023438 47.058594 29.203125 46.195312 C 28.382812 44.941406 27.820312 43.890625 27.027344 42.5625 C 27.167969 41.160156 27.535156 40.03125 28.449219 38.503906 C 29.570312 37.667969 30.148438 37.234375 30.726562 36.796875 C 31.109375 36.742188 31.492188 36.6875 32.617188 36.582031 C 35.570312 36.566406 37.785156 36.597656 39.996094 36.632812 C 40.257812 36.898438 40.5625 37.070312 41.496094 37.351562 C 42.839844 37.683594 43.601562 37.808594 44.367188 37.9375 C 44.367188 37.9375 44.535156 38.128906 44.871094 38.34375 C 45.636719 38.652344 46.070312 38.742188 46.5 38.828125 C 46.5 38.828125 46.773438 39.078125 47.191406 39.363281 C 48.277344 39.859375 48.949219 40.070312 49.84375 40.511719 C 50.65625 40.890625 51.25 41.042969 51.84375 41.195312 C 51.84375 41.195312 51.886719 41.144531 52.054688 41.4375 C 52.828125 41.882812 53.433594 42.03125 54.035156 42.179688 C 54.035156 42.179688 54.300781 42.460938 54.765625 42.753906 C 58.054688 44.347656 60.875 45.65625 63.699219 46.960938 C 63.699219 46.960938 63.738281 46.902344 63.945312 47.230469 C 66.160156 48.539062 68.167969 49.519531 70.175781 50.5 C 70.675781 50.878906 71.179688 51.261719 72.164062 51.960938 C 73.207031 52.496094 73.761719 52.710938 74.316406 52.921875 C 74.316406 52.921875 74.511719 52.925781 74.613281 53.199219 C 76.207031 54.582031 77.703125 55.6875 79.109375 56.898438 C 79.023438 57.003906 78.851562 57.214844 78.851562 57.214844 C 76.796875 56.664062 74.597656 56.445312 72.71875 55.507812 C 63.546875 50.933594 54.652344 45.667969 45.261719 41.699219 C 40.898438 39.851562 35.628906 40.390625 29.476562 39.703125 C 31.757812 44.003906 33.171875 46.667969 34.601562 49.742188 C 34.621094 50.148438 34.183594 50.175781 33.964844 50.199219 C 33.375 49.996094 33.007812 49.777344 32.355469 49.410156 Z M 32.355469 49.410156 "/>
<path style=" stroke:none;fill-rule:nonzero;fill:rgb(94.901961%,90.196078%,96.470588%);fill-opacity:1;" d="M 88.167969 62.3125 C 91.898438 63.445312 96.851562 62.730469 96.921875 69.433594 C 96.65625 69.878906 96.210938 69.917969 96.210938 69.917969 C 95.863281 69.726562 95.519531 69.539062 94.738281 69.070312 C 92.507812 67.460938 90.71875 66.125 88.925781 64.789062 C 88.925781 64.789062 88.871094 64.925781 88.941406 64.542969 C 88.726562 63.546875 88.449219 62.929688 88.167969 62.3125 Z M 88.167969 62.3125 "/>
<path style=" stroke:none;fill-rule:nonzero;fill:rgb(50.588235%,12.156863%,43.529412%);fill-opacity:1;" d="M 88.15625 62.292969 C 88.449219 62.929688 88.726562 63.546875 89 64.507812 C 85.664062 62.566406 82.332031 60.273438 78.925781 57.597656 C 78.851562 57.214844 79.023438 57.003906 79.472656 56.996094 C 82.660156 58.734375 85.398438 60.480469 88.136719 62.226562 C 88.136719 62.226562 88.144531 62.273438 88.15625 62.292969 Z M 88.15625 62.292969 "/>
<path style=" stroke:none;fill-rule:nonzero;fill:rgb(49.411765%,10.196078%,41.568627%);fill-opacity:1;" d="M 49.695312 166.179688 C 48.507812 166.738281 47.320312 167.296875 45.714844 167.78125 C 46.78125 166.214844 48.058594 164.316406 49.800781 163.335938 C 51.816406 162.203125 54.242188 161.882812 56.910156 161.570312 C 57.351562 162.199219 57.367188 162.46875 57.386719 162.742188 C 55.703125 163.691406 54.019531 164.644531 51.691406 165.277344 C 50.597656 165.363281 50.148438 165.769531 49.695312 166.179688 Z M 49.695312 166.179688 "/>
<path style=" stroke:none;fill-rule:nonzero;fill:rgb(54.117647%,16.078431%,47.45098%);fill-opacity:1;" d="M 96.203125 70.320312 C 96.210938 69.917969 96.65625 69.878906 96.878906 69.875 C 97.101562 69.875 97.152344 69.863281 97.226562 70.144531 C 97.628906 70.625 97.960938 70.828125 98.292969 71.027344 C 98.292969 71.027344 98.304688 70.933594 98.367188 71.222656 C 98.757812 71.703125 99.085938 71.894531 99.410156 72.085938 C 99.410156 72.085938 99.449219 72.007812 99.5 72.316406 C 99.867188 72.820312 100.179688 73.019531 100.492188 73.222656 C 100.492188 73.222656 100.53125 73.140625 100.628906 73.511719 C 101.699219 74.890625 102.675781 75.894531 103.652344 76.902344 C 103.699219 77.269531 103.835938 77.601562 104.140625 78.148438 C 101.785156 76.773438 99.351562 75.136719 96.601562 73.320312 C 96.257812 72.332031 96.226562 71.527344 96.203125 70.320312 Z M 96.203125 70.320312 "/>
<path style=" stroke:none;fill-rule:nonzero;fill:rgb(58.823529%,1.176471%,45.490196%);fill-opacity:1;" d="M 102.011719 122.292969 C 101.960938 118.660156 104.050781 119.015625 106.769531 119.976562 C 106.613281 121.429688 106.074219 122.828125 105.21875 124.429688 C 104.0625 123.855469 103.226562 123.082031 102.011719 122.292969 Z M 102.011719 122.292969 "/>
<path style=" stroke:none;fill-rule:nonzero;fill:rgb(50.588235%,12.156863%,43.529412%);fill-opacity:1;" d="M 88.863281 65.246094 C 90.71875 66.125 92.507812 67.460938 94.445312 69.167969 C 91.886719 69.5625 89.074219 69.769531 88.863281 65.246094 Z M 88.863281 65.246094 "/>
<path style=" stroke:none;fill-rule:nonzero;fill:rgb(50.588235%,9.411765%,43.137255%);fill-opacity:1;" d="M 45.375 59.011719 C 44.101562 58.472656 42.820312 57.507812 41.363281 56.246094 C 42.578125 56.824219 43.972656 57.703125 45.375 59.011719 Z M 45.375 59.011719 "/>
<path style=" stroke:none;fill-rule:nonzero;fill:rgb(50.588235%,9.411765%,43.137255%);fill-opacity:1;" d="M 40.445312 55.765625 C 40.011719 55.441406 39.78125 55.195312 39.339844 54.820312 C 39.042969 54.222656 38.941406 53.777344 38.769531 52.996094 C 39.5 53.46875 40.292969 54.273438 41.113281 55.480469 C 41.136719 55.875 40.671875 55.824219 40.445312 55.765625 Z M 40.445312 55.765625 "/>
<path style=" stroke:none;fill-rule:nonzero;fill:rgb(49.411765%,10.196078%,41.568627%);fill-opacity:1;" d="M 26.992188 171.210938 C 26.910156 171.386719 26.695312 171.394531 26.160156 171.386719 C 26.179688 171.261719 26.519531 171.152344 26.992188 171.210938 Z M 26.992188 171.210938 "/>
<path style=" stroke:none;fill-rule:nonzero;fill:rgb(50.980392%,15.294118%,45.098039%);fill-opacity:1;" d="M 57.703125 162.707031 C 57.367188 162.46875 57.351562 162.199219 57.328125 161.519531 C 57.320312 161.109375 57.816406 161.070312 58.066406 161.035156 C 58.3125 161 58.351562 161.5625 58.367188 161.84375 C 58.261719 162.308594 58.140625 162.492188 57.703125 162.707031 Z M 57.703125 162.707031 "/>
<path style=" stroke:none;fill-rule:nonzero;fill:rgb(49.411765%,10.196078%,41.568627%);fill-opacity:1;" d="M 51.066406 133.59375 C 50.957031 133.367188 51.160156 133.066406 51.675781 132.679688 C 51.789062 132.902344 51.589844 133.210938 51.066406 133.59375 Z M 51.066406 133.59375 "/>
<path style=" stroke:none;fill-rule:nonzero;fill:rgb(50.980392%,15.294118%,45.098039%);fill-opacity:1;" d="M 36.132812 171.480469 C 37.003906 170.945312 38.269531 170.335938 39.769531 169.996094 C 38.839844 170.644531 37.6875 171.023438 36.132812 171.480469 Z M 36.132812 171.480469 "/>
<path style=" stroke:none;fill-rule:nonzero;fill:rgb(50.980392%,15.294118%,45.098039%);fill-opacity:1;" d="M 49.980469 166.269531 C 50.148438 165.769531 50.597656 165.363281 51.359375 165.082031 C 51.199219 165.59375 50.730469 165.976562 49.980469 166.269531 Z M 49.980469 166.269531 "/>
<path style=" stroke:none;fill-rule:nonzero;fill:rgb(94.901961%,90.196078%,96.470588%);fill-opacity:1;" d="M 88.230469 61.820312 C 85.398438 60.480469 82.660156 58.734375 79.558594 56.890625 C 77.703125 55.6875 76.207031 54.582031 74.519531 53.179688 C 77.011719 53.539062 79.703125 54.195312 82.804688 54.871094 C 84.921875 57.0625 86.625 59.238281 88.230469 61.820312 Z M 88.230469 61.820312 "/>
<path style=" stroke:none;fill-rule:nonzero;fill:rgb(94.901961%,90.196078%,96.470588%);fill-opacity:1;" d="M 63.652344 46.550781 C 60.875 45.65625 58.054688 44.347656 54.957031 42.75 C 57.652344 43.6875 60.628906 44.914062 63.652344 46.550781 Z M 63.652344 46.550781 "/>
<path style=" stroke:none;fill-rule:nonzero;fill:rgb(94.509804%,80.392157%,91.372549%);fill-opacity:1;" d="M 39.769531 36.320312 C 37.785156 36.597656 35.570312 36.566406 32.886719 36.46875 C 34.636719 33.191406 37.074219 34.3125 39.769531 36.320312 Z M 39.769531 36.320312 "/>
<path style=" stroke:none;fill-rule:nonzero;fill:rgb(94.901961%,90.196078%,96.470588%);fill-opacity:1;" d="M 70.148438 50.058594 C 68.167969 49.519531 66.160156 48.539062 63.929688 47.253906 C 65.84375 47.839844 67.980469 48.730469 70.148438 50.058594 Z M 70.148438 50.058594 "/>
<path style=" stroke:none;fill-rule:nonzero;fill:rgb(94.901961%,90.196078%,96.470588%);fill-opacity:1;" d="M 51.800781 40.828125 C 51.25 41.042969 50.65625 40.890625 49.863281 40.175781 C 49.664062 39.386719 49.664062 39.164062 49.664062 38.9375 C 50.359375 39.445312 51.058594 39.957031 51.800781 40.828125 Z M 51.800781 40.828125 "/>
<path style=" stroke:none;fill-rule:nonzero;fill:rgb(94.901961%,90.196078%,96.470588%);fill-opacity:1;" d="M 74.351562 52.566406 C 73.761719 52.710938 73.207031 52.496094 72.476562 52.023438 C 72.996094 51.914062 73.691406 52.058594 74.351562 52.566406 Z M 74.351562 52.566406 "/>
<path style=" stroke:none;fill-rule:nonzero;fill:rgb(94.509804%,80.392157%,91.372549%);fill-opacity:1;" d="M 30.328125 36.773438 C 30.148438 37.234375 29.570312 37.667969 28.644531 38.207031 C 28.839844 37.789062 29.382812 37.265625 30.328125 36.773438 Z M 30.328125 36.773438 "/>
<path style=" stroke:none;fill-rule:nonzero;fill:rgb(94.509804%,80.392157%,91.372549%);fill-opacity:1;" d="M 44.09375 37.609375 C 43.601562 37.808594 42.839844 37.683594 41.757812 37.3125 C 42.234375 37.140625 43.027344 37.210938 44.09375 37.609375 Z M 44.09375 37.609375 "/>
<path style=" stroke:none;fill-rule:nonzero;fill:rgb(94.509804%,80.392157%,91.372549%);fill-opacity:1;" d="M 49.242188 38.925781 C 49.664062 39.164062 49.664062 39.386719 49.640625 39.949219 C 48.949219 40.070312 48.277344 39.859375 47.371094 39.363281 C 47.695312 39.023438 48.257812 38.96875 49.242188 38.925781 Z M 49.242188 38.925781 "/>
<path style=" stroke:none;fill-rule:nonzero;fill:rgb(94.901961%,90.196078%,96.470588%);fill-opacity:1;" d="M 53.832031 41.929688 C 53.433594 42.03125 52.828125 41.882812 52.039062 41.464844 C 52.441406 41.359375 53.035156 41.519531 53.832031 41.929688 Z M 53.832031 41.929688 "/>
<path style=" stroke:none;fill-rule:nonzero;fill:rgb(94.901961%,90.196078%,96.470588%);fill-opacity:1;" d="M 32.09375 24.183594 C 32.332031 24.167969 32.457031 24.3125 32.644531 24.746094 C 32.460938 24.804688 32.21875 24.574219 32.09375 24.183594 Z M 32.09375 24.183594 "/>
<path style=" stroke:none;fill-rule:nonzero;fill:rgb(94.509804%,80.392157%,91.372549%);fill-opacity:1;" d="M 46.273438 38.570312 C 46.070312 38.742188 45.636719 38.652344 44.984375 38.292969 C 45.191406 38.117188 45.617188 38.214844 46.273438 38.570312 Z M 46.273438 38.570312 "/>
<path style=" stroke:none;fill-rule:nonzero;fill:rgb(58.823529%,1.176471%,45.490196%);fill-opacity:1;" d="M 108.546875 117.722656 C 107.433594 116.136719 106.695312 114.433594 106.371094 112.265625 C 107.574219 109.796875 109.277344 107.621094 108.980469 105.816406 C 107.992188 99.796875 106.28125 93.910156 104.847656 87.972656 C 105.140625 87.382812 105.433594 86.789062 106.214844 85.964844 C 107.671875 85.96875 108.640625 86.207031 109.605469 86.445312 C 109.605469 86.445312 109.464844 86.5625 109.429688 86.992188 C 110.785156 90.277344 112.171875 93.132812 113.5625 95.992188 C 113.5625 95.992188 113.804688 96.308594 113.78125 96.511719 C 112.980469 102.101562 112.34375 107.519531 111.347656 112.859375 C 111.03125 114.542969 109.757812 116.027344 108.546875 117.722656 Z M 108.546875 117.722656 "/>
<path style=" stroke:none;fill-rule:nonzero;fill:rgb(54.117647%,16.078431%,47.45098%);fill-opacity:1;" d="M 113.589844 95.5625 C 112.171875 93.132812 110.785156 90.277344 109.519531 86.96875 C 110.964844 89.386719 112.289062 92.261719 113.589844 95.5625 Z M 113.589844 95.5625 "/>
<path style=" stroke:none;fill-rule:nonzero;fill:rgb(54.117647%,16.078431%,47.45098%);fill-opacity:1;" d="M 109.542969 86.0625 C 108.640625 86.207031 107.671875 85.96875 106.335938 85.65625 C 105.308594 83.480469 104.648438 81.378906 104.105469 78.839844 C 105.972656 80.832031 107.726562 83.253906 109.542969 86.0625 Z M 109.542969 86.0625 "/>
<path style=" stroke:none;fill-rule:nonzero;fill:rgb(94.901961%,90.196078%,96.470588%);fill-opacity:1;" d="M 103.671875 76.457031 C 102.675781 75.894531 101.699219 74.890625 100.597656 73.546875 C 101.546875 74.144531 102.617188 75.082031 103.671875 76.457031 Z M 103.671875 76.457031 "/>
<path style=" stroke:none;fill-rule:nonzero;fill:rgb(94.901961%,90.196078%,96.470588%);fill-opacity:1;" d="M 98.179688 70.75 C 97.960938 70.828125 97.628906 70.625 97.207031 70.128906 C 97.433594 70.042969 97.75 70.257812 98.179688 70.75 Z M 98.179688 70.75 "/>
<path style=" stroke:none;fill-rule:nonzero;fill:rgb(94.901961%,90.196078%,96.470588%);fill-opacity:1;" d="M 99.285156 71.820312 C 99.085938 71.894531 98.757812 71.703125 98.324219 71.230469 C 98.53125 71.152344 98.847656 71.355469 99.285156 71.820312 Z M 99.285156 71.820312 "/>
<path style=" stroke:none;fill-rule:nonzero;fill:rgb(94.901961%,90.196078%,96.470588%);fill-opacity:1;" d="M 100.375 72.960938 C 100.179688 73.019531 99.867188 72.820312 99.464844 72.335938 C 99.671875 72.269531 99.964844 72.484375 100.375 72.960938 Z M 100.375 72.960938 "/>
<path style=" stroke:none;fill-rule:nonzero;fill:rgb(52.156863%,9.411765%,45.490196%);fill-opacity:1;" d="M 104.542969 87.839844 C 106.28125 93.910156 107.992188 99.796875 108.980469 105.816406 C 109.277344 107.621094 107.574219 109.796875 106.410156 111.925781 C 105.738281 111.121094 105.441406 110.195312 105.382812 108.679688 C 105.75 106.023438 106.628906 103.535156 105.847656 101.96875 C 104.261719 98.769531 107.125 93.335938 101.570312 92.191406 C 101.25 89.886719 100.210938 87.109375 104.542969 87.839844 Z M 104.542969 87.839844 "/>
<path style=" stroke:none;fill-rule:nonzero;fill:rgb(87.058824%,54.901961%,85.882353%);fill-opacity:1;" d="M 101.574219 92.675781 C 107.125 93.335938 104.261719 98.769531 105.847656 101.96875 C 106.628906 103.535156 105.75 106.023438 105.234375 108.34375 C 103.761719 103.449219 102.671875 98.304688 101.574219 92.675781 Z M 101.574219 92.675781 "/>
</g>
</svg>
